<svg id="圖層_1" data-name="圖層 1" xmlns="http://www.w3.org/2000/svg" viewBox="0 0 85 60"><defs><style>.cls-1{fill:#0d9dda;}.cls-2,.cls-3{fill:#fff;}.cls-3{fill-rule:evenodd;}</style></defs><path class="cls-1" d="M35.55,7.33A14.5,14.5,0,0,1,46.06,2.81a14.66,14.66,0,0,1,12.78,7.58A17.86,17.86,0,0,1,83.93,26.88a17.94,17.94,0,0,1-17.86,18,17.73,17.73,0,0,1-3.52-.35,13,13,0,0,1-17.11,5.37,14.9,14.9,0,0,1-27.7-.67A13.85,13.85,0,0,1,1.07,35.57,14,14,0,0,1,8,23.46,16.09,16.09,0,0,1,35.55,7.33Z"/><path class="cls-2" d="M13.07,31.08a.15.15,0,0,0,0,.19,4.48,4.48,0,0,0,.47.28,5,5,0,0,0,2.48.58c1.7,0,2.75-.9,2.75-2.36v0c0-1.34-1.19-1.83-2.31-2.19l-.14,0c-.85-.28-1.57-.51-1.57-1.07v0c0-.47.42-.82,1.08-.82a4.9,4.9,0,0,1,2.16.55s.17.11.23-.05l.34-.93a.15.15,0,0,0-.08-.19,4.81,4.81,0,0,0-2.44-.66h-.17a2.38,2.38,0,0,0-2.64,2.29v0c0,1.42,1.2,1.88,2.32,2.2l.18.06c.82.25,1.53.46,1.53,1v0c0,.52-.46.92-1.2.92a4.06,4.06,0,0,1-2.19-.63l-.28-.18a.13.13,0,0,0-.22.08Z"/><path class="cls-2" d="M38,31.08a.15.15,0,0,0,0,.19,4.48,4.48,0,0,0,.47.28,5.06,5.06,0,0,0,2.48.58c1.7,0,2.76-.9,2.76-2.36v0c0-1.34-1.2-1.83-2.31-2.19l-.15,0c-.84-.28-1.57-.51-1.57-1.07v0c0-.47.43-.82,1.09-.82a4.85,4.85,0,0,1,2.15.55s.17.11.23-.05.31-.85.35-.93A.16.16,0,0,0,43.4,25,4.8,4.8,0,0,0,41,24.31H40.8a2.37,2.37,0,0,0-2.64,2.29v0c0,1.42,1.19,1.88,2.32,2.2l.18.06c.81.25,1.52.46,1.52,1v0c0,.52-.46.92-1.2.92a4.08,4.08,0,0,1-2.19-.63l-.28-.18a.14.14,0,0,0-.22.08Z"/><path class="cls-2" d="M56.36,26.7a3.45,3.45,0,0,0-.65-1.23,2.93,2.93,0,0,0-1.09-.83,3.58,3.58,0,0,0-1.52-.3,3.65,3.65,0,0,0-1.52.3,3.1,3.1,0,0,0-1.09.83,3.43,3.43,0,0,0-.64,1.23,5.64,5.64,0,0,0,0,3.05A3.35,3.35,0,0,0,50.49,31a3.1,3.1,0,0,0,1.09.83,3.82,3.82,0,0,0,1.52.29,3.75,3.75,0,0,0,1.52-.29A3,3,0,0,0,55.71,31a3.37,3.37,0,0,0,.65-1.23,5.64,5.64,0,0,0,0-3.05m-1.42,1.53a3.53,3.53,0,0,1-.45,1.93,1.55,1.55,0,0,1-1.39.67,1.5,1.5,0,0,1-1.37-.67,3.53,3.53,0,0,1-.45-1.93,3.45,3.45,0,0,1,.45-1.92,1.5,1.5,0,0,1,1.37-.67,1.55,1.55,0,0,1,1.39.67,3.45,3.45,0,0,1,.45,1.92"/><path class="cls-3" d="M68,30.61a.14.14,0,0,0-.18-.09,2.8,2.8,0,0,1-.66.19,4.75,4.75,0,0,1-.78.06,2.18,2.18,0,0,1-1.62-.61,2.73,2.73,0,0,1-.61-1.94,3,3,0,0,1,.55-1.87,1.83,1.83,0,0,1,1.57-.69,4.94,4.94,0,0,1,1.5.21s.11.05.16-.09c.13-.35.22-.59.35-1a.12.12,0,0,0-.09-.17,5.5,5.5,0,0,0-.94-.24,6.86,6.86,0,0,0-1.07-.07,3.94,3.94,0,0,0-1.58.3,3.2,3.2,0,0,0-1.14.83,3.38,3.38,0,0,0-.69,1.23,5.05,5.05,0,0,0-.23,1.53A4.09,4.09,0,0,0,63.49,31a3.59,3.59,0,0,0,2.8,1.06,5.77,5.77,0,0,0,2-.36.14.14,0,0,0,.06-.17Z"/><path class="cls-3" d="M75.27,26.43a3.08,3.08,0,0,0-.61-1.12,2.64,2.64,0,0,0-.92-.69,3.45,3.45,0,0,0-1.37-.28,3.89,3.89,0,0,0-1.59.3,3.22,3.22,0,0,0-1.1.85A3.46,3.46,0,0,0,69,26.74a5.68,5.68,0,0,0,0,3.06,3.1,3.1,0,0,0,1.91,2,4.57,4.57,0,0,0,1.74.28,4.91,4.91,0,0,0,2.42-.48c.05,0,.1-.08,0-.23l-.31-.88a.14.14,0,0,0-.18-.08,4.68,4.68,0,0,1-2,.36A2.25,2.25,0,0,1,71,30.22a2.29,2.29,0,0,1-.56-1.6h4.8a.14.14,0,0,0,.14-.13A5,5,0,0,0,75.27,26.43Zm-4.78,1a2.84,2.84,0,0,1,.39-1.13,1.54,1.54,0,0,1,1.38-.7,1.48,1.48,0,0,1,1.34.7,2.28,2.28,0,0,1,.32,1.13Z"/><path class="cls-3" d="M36.81,26.43a3.08,3.08,0,0,0-.62-1.12,2.7,2.7,0,0,0-.91-.69,3.46,3.46,0,0,0-1.38-.28,3.84,3.84,0,0,0-1.58.3,3.26,3.26,0,0,0-1.11.85,3.46,3.46,0,0,0-.65,1.25,5.34,5.34,0,0,0-.21,1.53,5,5,0,0,0,.22,1.53A3.13,3.13,0,0,0,31.26,31a3.2,3.2,0,0,0,1.21.8,4.62,4.62,0,0,0,1.75.28,5,5,0,0,0,2.42-.48s.1-.08,0-.23l-.32-.88a.14.14,0,0,0-.18-.08,4.58,4.58,0,0,1-2,.36,2.22,2.22,0,0,1-1.64-.57,2.25,2.25,0,0,1-.56-1.6h4.8A.14.14,0,0,0,37,28.5,5.4,5.4,0,0,0,36.81,26.43Zm-4.78,1a2.69,2.69,0,0,1,.39-1.13,1.52,1.52,0,0,1,1.37-.7,1.5,1.5,0,0,1,1.35.7,2.39,2.39,0,0,1,.31,1.13Z"/><path class="cls-2" d="M23.56,27.21c-.2,0-.45,0-.75,0a4.54,4.54,0,0,0-1.18.15,3.22,3.22,0,0,0-1,.46,2.32,2.32,0,0,0-.69.8,2.26,2.26,0,0,0-.26,1.1,2.45,2.45,0,0,0,.22,1.1,2,2,0,0,0,.63.75,2.39,2.39,0,0,0,1,.42,5.6,5.6,0,0,0,1.28.13A8.69,8.69,0,0,0,24.22,32c.48-.08,1.05-.2,1.21-.23l.34-.09a.14.14,0,0,0,.11-.15v-4.4A2.73,2.73,0,0,0,25.12,25a3.3,3.3,0,0,0-2.21-.66,7.94,7.94,0,0,0-1.29.12,4.55,4.55,0,0,0-1.48.54.15.15,0,0,0,0,.19l.34.91a.12.12,0,0,0,.16.08l.08,0a4.93,4.93,0,0,1,2.09-.49A1.93,1.93,0,0,1,24,26c.27.21.4.51.4,1.15v.2C23.94,27.24,23.56,27.21,23.56,27.21Zm-1.91,3.37c-.19-.15-.22-.18-.28-.28a1.23,1.23,0,0,1-.14-.63,1.06,1.06,0,0,1,.43-.93,2.09,2.09,0,0,1,1.39-.34,9.94,9.94,0,0,1,1.3.11v2.18h0a9.73,9.73,0,0,1-1.3.17A2.11,2.11,0,0,1,21.65,30.58Z"/><path class="cls-3" d="M62.3,24.73a.13.13,0,0,0-.08-.17,4.26,4.26,0,0,0-.8-.14,2.53,2.53,0,0,0-1.24.2,2.15,2.15,0,0,0-.81.6v-.58a.15.15,0,0,0-.14-.15H58a.15.15,0,0,0-.14.15V31.8A.15.15,0,0,0,58,32h1.26a.15.15,0,0,0,.15-.15V28.22A4.43,4.43,0,0,1,59.57,27a1.9,1.9,0,0,1,.43-.71,1.33,1.33,0,0,1,.59-.35,2.23,2.23,0,0,1,.64-.09,3,3,0,0,1,.53.06c.09,0,.14,0,.18-.13S62.25,24.86,62.3,24.73Z"/><path class="cls-3" d="M50.45,21.41A4.68,4.68,0,0,0,50,21.3a4.23,4.23,0,0,0-.66-.05,2.77,2.77,0,0,0-2,.73,3.91,3.91,0,0,0-1,2.18l-.06.32H45.18a.16.16,0,0,0-.16.14l-.18,1c0,.1,0,.16.15.16h1.06l-1.07,6A7.81,7.81,0,0,1,44.69,33a2.6,2.6,0,0,1-.34.69.84.84,0,0,1-.43.33,1.7,1.7,0,0,1-.57.09A1.74,1.74,0,0,1,43,34a.82.82,0,0,1-.25-.08.14.14,0,0,0-.18.08c0,.1-.32.88-.35,1a.13.13,0,0,0,.07.19,2.94,2.94,0,0,0,.44.13,2.59,2.59,0,0,0,.7.07,3.53,3.53,0,0,0,1.18-.18,2.25,2.25,0,0,0,.89-.62,3.25,3.25,0,0,0,.62-1.08,8.47,8.47,0,0,0,.42-1.61l1.09-6.12h1.58a.17.17,0,0,0,.16-.14l.18-1c0-.1,0-.16-.16-.16H47.82a5.4,5.4,0,0,1,.25-1.08,1.42,1.42,0,0,1,.34-.51.94.94,0,0,1,.4-.25,1.65,1.65,0,0,1,.51-.08,2.25,2.25,0,0,1,.4,0l.25.06c.15.05.17,0,.2-.07l.37-1C50.58,21.47,50.49,21.43,50.45,21.41Z"/><path class="cls-3" d="M29,31.8a.15.15,0,0,1-.14.15H27.58a.14.14,0,0,1-.13-.15V21.55a.13.13,0,0,1,.13-.14h1.28a.14.14,0,0,1,.14.14Z"/></svg>