<svg id="圖層_1" data-name="圖層 1" xmlns="http://www.w3.org/2000/svg" viewBox="0 0 120 20"><defs><style>.cls-1{fill:#fff;}</style></defs><path class="cls-1" d="M112.61,15.63a20.22,20.22,0,0,1-5-.74c0,.21-.65,3-.68,3.16a15.31,15.31,0,0,0,5.61,1.06c5.46,0,6.49-1.78,6.49-5,0-2.89-.23-3.93-4.67-4.73-2.69-.47-3-.65-3-1.81s.5-1.22,1.92-1.22a24.57,24.57,0,0,1,4.8.54c0-.21.46-3.19.48-3.36a23.7,23.7,0,0,0-5.31-.65c-4.39,0-6.18,1.31-6.18,4.53,0,2.71.3,4.41,4.49,5.08,2.89.47,3.14.73,3.14,1.83s-.47,1.36-2.12,1.36M69,3.13h-4.3V18.8H69Zm-33.85,16a25,25,0,0,0,6.34-.84V10.56H37.66v4.75h-.1a17.8,17.8,0,0,1-2.37.16c-1.55,0-2.25-.61-2.25-2V8.4c0-1.34.66-1.88,2.25-1.88s3.79.22,5.5.42c0-.21.38-3.39.4-3.57a33.37,33.37,0,0,0-5.9-.54c-4.4,0-6.55,1.59-6.55,4.87v6.5c0,3.3,2.15,4.91,6.55,4.91m-9.79-16H21.1V18.8h4.3ZM54.93,18.94H59V4.5h4.38V.89H50.55V4.5h4.38ZM1.35,11.84c.26.05,2.75.38,2.75.38l.31,1.91h3.4v-3.6H1.35c-.18,0-.38.12-.38.63s.11.63.38.68m3.06,7.1H12c4.44,0,6.1-2.27,6.1-4.68V5.58c0-2.43-1.66-4.69-6.1-4.69H1.35C1.17.89,1,1,1,1.53s.11.62.38.67,2.75.39,2.75.39L4.41,4.5h7.07c2,0,2.52.79,2.52,2.2v6.45c0,1.41-.49,2.19-2.52,2.19H1.35c-.18,0-.38.13-.38.64s.11.62.38.67S4.1,17,4.1,17ZM4.1,7.41l.31,1.9h3.4V5.71H1.35c-.18,0-.38.12-.38.64s.11.62.38.67,2.75.39,2.75.39M86,11.11s.3,7.49.31,7.69h4.14c0-.23-.8-15.46-.81-15.67H85.42l-4,9.47-4-9.47H73.2c0,.21-.8,15.44-.82,15.67h4.15c0-.2.3-7.65.3-7.65l.21,0s2.45,5.61,2.51,5.73h3.71l2.5-5.76Zm18.62,4.31h-7V12.54H104V9.15H97.62V6.52h7V3.13H93.32V18.8h11.27ZM49,3.13h-4.3V18.8H49Z"/></svg>